<svg fill="#000000" xmlns="http://www.w3.org/2000/svg"  viewBox="0 0 50 50" width="50px" height="50px"><path fill="white" stroke="none" stroke-linecap="round" stroke-miterlimit="10" stroke-width="2" d="M25,16c5,0,9,4,9,9	c0,5-4,9-9,9c-5,0-9-4-9-9C16,20,20,16,25,16"/><line x1="39" x2="45" y1="25" y2="25" fill="none" stroke="white" stroke-linecap="round" stroke-miterlimit="10" stroke-width="2"/><line x1="11" x2="5" y1="25" y2="25" fill="none" stroke="white" stroke-linecap="round" stroke-miterlimit="10" stroke-width="2"/><line x1="25" x2="25" y1="11" y2="5" fill="none" stroke="white" stroke-linecap="round" stroke-miterlimit="10" stroke-width="2"/><line x1="25" x2="25" y1="39" y2="45" fill="none" stroke="white" stroke-linecap="round" stroke-miterlimit="10" stroke-width="2"/><line x1="34.9" x2="39.1" y1="15.1" y2="10.9" fill="none" stroke="white" stroke-linecap="round" stroke-miterlimit="10" stroke-width="2"/><line x1="15.1" x2="10.9" y1="34.9" y2="39.1" fill="none" stroke="white" stroke-linecap="round" stroke-miterlimit="10" stroke-width="2"/><line x1="15.1" x2="10.9" y1="15.1" y2="10.9" fill="none" stroke="white" stroke-linecap="round" stroke-miterlimit="10" stroke-width="2"/><line x1="34.9" x2="39.1" y1="34.9" y2="39.1" fill="none" stroke="white" stroke-linecap="round" stroke-miterlimit="10" stroke-width="2"/></svg>